<svg xmlns="http://www.w3.org/2000/svg" xmlns:xlink="http://www.w3.org/1999/xlink" width="500" zoomAndPan="magnify" viewBox="0 0 375 374.999991" height="500" preserveAspectRatio="xMidYMid meet" version="1.0"><defs><clipPath id="470fad345d"><path d="M 34 3 L 336 3 L 336 371.835938 L 34 371.835938 Z M 34 3 " clip-rule="nonzero"/></clipPath></defs><g clip-path="url(#470fad345d)"><path fill="#327ee2" d="M 171.917969 171.140625 C 168.695312 174.792969 165.484375 178.3125 162.394531 181.9375 C 143.070312 204.609375 127.089844 229.535156 112.851562 255.617188 C 101.277344 276.820312 91.082031 298.671875 81.921875 321.03125 C 81.371094 322.375 80.875 323.746094 80.054688 325.882812 C 81.292969 325.101562 81.964844 324.765625 82.539062 324.308594 C 86.421875 321.316406 90.195312 318.171875 94.171875 315.324219 C 97.851562 312.679688 102.09375 312.828125 105.464844 315.351562 C 110.570312 319.179688 110.8125 326.230469 105.855469 330.636719 C 103.570312 332.664062 101.074219 334.449219 98.671875 336.355469 C 84.433594 347.582031 70.183594 358.8125 55.949219 370.023438 C 55.183594 370.628906 54.390625 371.179688 53.332031 371.957031 C 52.914062 370.910156 52.5 370.078125 52.257812 369.191406 C 46.722656 349.503906 41.21875 329.800781 35.699219 310.101562 C 35.402344 309.039062 35.09375 307.980469 34.890625 306.890625 C 34.03125 302.003906 36.839844 297.261719 41.363281 295.863281 C 46.078125 294.414062 50.898438 296.496094 53.089844 300.980469 C 53.464844 301.746094 53.707031 302.582031 53.933594 303.398438 C 55.398438 308.582031 56.847656 313.78125 58.3125 318.949219 C 58.675781 320.199219 59.121094 321.421875 59.738281 323.289062 C 60.421875 321.960938 60.851562 321.273438 61.148438 320.550781 C 72.144531 292.976562 84.691406 266.132812 99.179688 240.226562 C 113.09375 215.367188 128.644531 191.609375 147.140625 169.878906 C 151.503906 164.75 156.164062 159.875 160.757812 154.945312 C 161.84375 153.777344 162.421875 152.769531 162.019531 151.0625 C 159.023438 138.425781 161.667969 126.515625 166.949219 115.003906 C 172.589844 102.714844 180.714844 92.160156 189.980469 82.449219 C 209.613281 61.890625 232.554688 45.625 257.023438 31.417969 C 271.566406 22.96875 286.609375 15.582031 302.429688 9.808594 C 309.464844 7.242188 316.609375 5.066406 324.050781 4.074219 C 331.773438 3.039062 337.507812 10.238281 334.605469 17.273438 C 333.0625 21.035156 329.972656 22.6875 326.105469 23.441406 C 321.78125 24.285156 317.457031 25.210938 313.265625 26.515625 C 297.164062 31.539062 282.136719 39.003906 267.578125 47.410156 C 245.191406 60.316406 224.308594 75.253906 206.082031 93.679688 C 197.609375 102.257812 190.046875 111.554688 184.757812 122.511719 C 182.742188 126.6875 181.089844 131 180.429688 136.480469 C 181.988281 135.351562 183.035156 134.640625 184.03125 133.859375 C 196.777344 123.960938 210.421875 115.621094 225.554688 109.847656 C 243.042969 103.1875 261.066406 100.621094 279.691406 102.90625 C 285.332031 103.601562 290.730469 105.148438 295.753906 107.859375 C 309.117188 115.097656 314.261719 129.589844 308.484375 143.675781 C 304.980469 152.230469 298.855469 158.679688 291.617188 164.117188 C 276.84375 175.238281 260.042969 181.722656 242.035156 185.296875 C 228.832031 187.914062 215.550781 188.652344 202.226562 186.167969 C 191.136719 184.101562 181.183594 179.722656 173.070312 171.664062 C 172.925781 171.542969 172.65625 171.492188 171.917969 171.140625 Z M 186.636719 157.335938 C 188.769531 160.128906 191.539062 161.863281 194.464844 163.378906 C 201.261719 166.882812 208.632812 167.984375 216.140625 168.320312 C 223.890625 168.671875 231.558594 167.769531 239.132812 166.160156 C 253.53125 163.109375 267.121094 158.089844 279.113281 149.332031 C 283.398438 146.203125 287.28125 142.644531 289.871094 137.929688 C 293.109375 132.0625 291.28125 126.648438 285.035156 124.246094 C 282.324219 123.195312 279.410156 122.511719 276.523438 122.109375 C 263.789062 120.308594 251.355469 122.015625 239.160156 125.734375 C 219.699219 131.671875 203.074219 142.523438 187.925781 155.832031 C 187.496094 156.222656 187.160156 156.71875 186.636719 157.335938 Z M 186.636719 157.335938 " fill-opacity="1" fill-rule="nonzero"/></g></svg>